# xmcd
#
# Track frame offsets:
#	150
#	16407
#	30465
#	44072
#	56268
#	69082
#	78329
#	89800
#	101244
#	119724
#	131373
#	142440
#	156612
#	168885
#	191205
#
# Disc length: 3931 seconds
#
# Revision: 0
# Processed by: cddbd v1.4PL0 Copyright (c) Steve Scherf et al.
# Submitted via: dBpowerAMP V4.0
#
DISCID=dd0f590f
DTITLE=Los Originales de la Banda - 14 Éxitos
DYEAR=2002
DGENRE=Banda
TTITLE0=Te extraño, te olvido, te amo
TTITLE1=Mis borracheras
TTITLE2=Daño
TTITLE3=No me hagas menos
TTITLE4=Media vida
TTITLE5=Si te vas no hay lío
TTITLE6=Pago al contado
TTITLE7=Dejó de quererme
TTITLE8=Por ti
TTITLE9=Madre aquí está mi padre
TTITLE10=Por feo
TTITLE11=Estrenando novio
TTITLE12=Se casa para el domingo
TTITLE13=La voz de mi madre
TTITLE14=DATA
EXTD=
EXTT0=
EXTT1=
EXTT2=
EXTT3=
EXTT4=
EXTT5=
EXTT6=
EXTT7=
EXTT8=
EXTT9=
EXTT10=
EXTT11=
EXTT12=
EXTT13=
EXTT14=
PLAYORDER=
